<svg id="Layer_2" data-name="Layer 2" xmlns="http://www.w3.org/2000/svg" xmlns:xlink="http://www.w3.org/1999/xlink" viewBox="0 0 652.7173 407.3176">
  <defs>
    <style>
      .cls-1 {
        fill: url(#linear-gradient-8);
      }

      .cls-2 {
        fill: url(#linear-gradient-7);
      }

      .cls-3 {
        fill: url(#linear-gradient-5);
      }

      .cls-4 {
        fill: url(#linear-gradient-6);
      }

      .cls-5 {
        fill: url(#linear-gradient-9);
      }

      .cls-6 {
        fill: url(#linear-gradient-4);
      }

      .cls-7 {
        fill: url(#linear-gradient-3);
      }

      .cls-8 {
        fill: url(#linear-gradient-2);
      }

      .cls-9 {
        fill: url(#linear-gradient);
      }

      .cls-10 {
        fill: #fff;
      }
    </style>
    <linearGradient id="linear-gradient" x1="-11.8993" y1="221.3656" x2="443.4582" y2="58.2983" gradientUnits="userSpaceOnUse">
      <stop offset="0" stop-color="#725ea9"/>
      <stop offset=".1987" stop-color="#f27ba6"/>
      <stop offset="1" stop-color="#fbaf46"/>
    </linearGradient>
    <linearGradient id="linear-gradient-2" x1="-18.3537" y1="240.6669" x2="655.1205" y2="383.8944" gradientUnits="userSpaceOnUse">
      <stop offset="0" stop-color="#f37768"/>
      <stop offset=".3344" stop-color="#fcb52a"/>
      <stop offset=".745" stop-color="#57bfed"/>
      <stop offset="1" stop-color="#3f65b0"/>
    </linearGradient>
    <linearGradient id="linear-gradient-3" x1="-15.2098" y1="170.3045" x2="657.5117" y2="313.372" xlink:href="#linear-gradient-2"/>
    <linearGradient id="linear-gradient-4" x1="105.2859" y1="195.4112" x2="649.5953" y2="311.1693" xlink:href="#linear-gradient-2"/>
    <linearGradient id="linear-gradient-5" x1="-25.3116" y1="125.0799" x2="415.5872" y2="-32.8095" xlink:href="#linear-gradient"/>
    <linearGradient id="linear-gradient-6" x1="-16.2967" y1="130.9345" x2="658.6292" y2="274.4708" xlink:href="#linear-gradient-2"/>
    <linearGradient id="linear-gradient-7" x1="-9.4712" y1="198.5919" x2="648.8376" y2="338.5943" xlink:href="#linear-gradient-2"/>
    <linearGradient id="linear-gradient-8" x1="-12.221" y1="161.3233" x2="428.5854" y2="3.4669" xlink:href="#linear-gradient"/>
    <linearGradient id="linear-gradient-9" x1="-8.837" y1="112.4555" x2="402.288" y2="-34.7717" xlink:href="#linear-gradient"/>
  </defs>
  <g id="Layer_1-2" data-name="Layer 1">
    <path class="cls-9" d="M452.6632,157.2608l-34.6776-58.0739c.1747-.0887.3568-.164.5305-.2545,8.6519-4.5,15.4019-10.8087,20.2613-18.926,4.8548-8.114,7.2833-17.5599,7.2833-28.3344,0-9.5905-2.4285-18.0752-7.2833-25.4565-4.8594-7.3768-11.6094-13.2055-20.2613-17.487-8.6497-4.2783-18.5182-6.4202-29.5942-6.4202h-74.6674v154.9523h45.9857v-51.5772h7.6829l29.8777,51.5772h54.8623ZM360.2402,39.9397h20.032c4.0967,0,7.474.6301,10.1295,1.8815,2.6532,1.2558,4.6278,3.0269,5.9193,5.3133,1.2869,2.2898,1.936,5.0562,1.936,8.3005,0,3.5422-.6491,6.568-1.936,9.0762-1.2914,2.5104-3.1866,4.4647-5.69,5.8661-2.5057,1.4036-5.656,2.1022-9.4486,2.1022h-20.9422v-32.5398Z"/>
    <path class="cls-8" d="M6.2242,330.8264v-152.8923h69.1834c11.8267,0,22.686,1.8945,32.5689,5.6793,9.884,3.7891,18.4926,9.0634,25.8314,15.8358,7.3354,6.7703,12.9902,14.8167,16.9597,24.1348,3.965,9.3203,5.9526,19.5857,5.9526,30.7962,0,11.0668-1.9875,21.2952-5.9526,30.6874-3.9695,9.3922-9.6242,17.4734-16.9597,24.2437-7.3388,6.7725-15.9474,12.0511-25.8314,15.8358-9.8829,3.7891-20.7422,5.6793-32.5689,5.6793H6.2242ZM54.7416,290.638h19.5429c4.9414,0,9.4339-.9081,13.4772-2.7308,4.0423-1.8183,7.5594-4.3313,10.557-7.5346,2.9931-3.2011,5.3132-7.0229,6.9626-11.4675,1.646-4.4402,2.4713-9.2833,2.4713-14.5249s-.8253-10.0803-2.4713-14.5249c-1.6494-4.4402-3.9695-8.262-6.9626-11.4675-2.9976-3.2011-6.5147-5.712-10.557-7.5346-4.0434-1.8183-8.5358-2.7308-13.4772-2.7308h-19.5429v72.5155Z"/>
    <path class="cls-7" d="M338.5347,330.8264v-152.8923h72.3266c11.3788,0,21.0019,1.5287,28.8648,4.5883,7.8606,3.0574,13.849,7.3539,17.9697,12.8851,4.1162,5.5356,6.1765,12.0141,6.1765,19.4398,0,9.1722-2.1342,16.7461-6.4005,22.715-4.2685,5.9733-10.5234,9.9758-18.7557,12.0141l-.6741-4.1506c6.8864,1.6027,12.8771,4.1876,17.9697,7.7524,5.0881,3.5713,9.0587,7.9005,11.9051,12.9962,2.8419,5.1,4.2662,10.9209,4.2662,17.4734,0,8.0094-1.4982,14.9626-4.4924,20.8596-2.9964,5.8971-7.2268,10.812-12.6912,14.7426-5.4666,3.9328-11.7573,6.8465-18.8677,8.7367-7.1126,1.8945-14.7896,2.8396-23.0242,2.8396h-74.5728ZM383.4588,237.78h19.0916c3.4443,0,6.2527-.4355,8.425-1.3088,2.1678-.8754,3.7399-2.1472,4.7164-3.8239.9719-1.6724,1.4601-3.7455,1.4601-6.2237,0-3.3492-1.1623-6.0778-3.4824-8.1901-2.3224-2.1101-6.1765-3.1685-11.567-3.1685h-18.6438v22.715ZM383.4588,293.6954h28.3027c2.8419,0,5.2382-.4704,7.1865-1.4198,1.9439-.9451,3.4443-2.4019,4.4924-4.3684,1.0458-1.9664,1.5721-4.3313,1.5721-7.0991,0-2.4738-.5599-4.5491-1.6841-6.2237-1.122-1.6724-2.7344-2.9834-4.8283-3.9328-2.1006-.9451-4.7186-1.4198-7.8628-1.4198h-27.1784v24.4636Z"/>
    <g>
      <path class="cls-10" d="M25.3443,357.6975l-18.9395,48.9209h7.6875l4.6256-12.1602h20.4661l4.6104,12.1602h8.0371l-18.7988-48.9209h-7.6885ZM21.4828,387.1897l3.7218-9.7842c.2803-.792.6289-1.7822,1.0488-2.9707.4189-1.1875.8496-2.4561,1.293-3.8086.4424-1.3506.8613-2.6318,1.2578-3.8438.0681-.2084.1321-.4022.1968-.5981.0168.0511.0302.0914.0474.144.4199,1.2822.8848,2.6904,1.3984,4.2285.5117,1.5371.9658,2.9346,1.3623,4.1934.3955,1.2578.6641,2.0498.8037,2.376l3.8154,10.0635h-14.9454Z"/>
      <path class="cls-10" d="M82.9322,392.012c0,1.3047-.2334,2.5156-.6992,3.6338s-1.1064,2.0742-1.9219,2.8652c-.8154.793-1.7822,1.4102-2.9004,1.8525-1.1182.4434-2.3525.6641-3.7031.6641-1.8174,0-3.3672-.4199-4.6484-1.2578-1.2812-.8389-2.2598-2.0381-2.9346-3.5996-.6758-1.5605-1.0137-3.4121-1.0137-5.5557v-20.6865h-7.1982v22.6426c0,3.0293.5244,5.6387,1.5723,7.8281,1.0488,2.1904,2.5391,3.8906,4.4727,5.1016,1.9326,1.2109,4.2041,1.8174,6.8145,1.8174,2.0967,0,4.0537-.4092,5.8701-1.2236,1.8174-.8145,3.3896-1.9219,4.7178-3.3193.6082-.6399,1.1255-1.3182,1.5723-2.0266v5.8704h7.1982v-36.6904h-7.1982v22.084Z"/>
      <path class="cls-10" d="M127.3794,374.4664c-.629-.723-1.3658-1.4114-2.2363-2.0579-1.3516-1.001-2.877-1.793-4.5771-2.376-1.7012-.582-3.46-.874-5.2764-.874-3.3096,0-6.2676.8281-8.876,2.4814-2.6104,1.6543-4.6719,3.9131-6.1855,6.7793-1.5146,2.8652-2.2705,6.1387-2.2705,9.8184,0,3.6816.7686,6.9541,2.3057,9.8193,1.5381,2.8652,3.6221,5.126,6.2549,6.7793,2.6318,1.6543,5.626,2.4814,8.9805,2.4814,1.6777,0,3.3203-.2803,4.9277-.8389,1.6074-.5596,3.0273-1.3037,4.2627-2.2363,1.0915-.8238,1.9807-1.7155,2.6904-2.6669v5.0429h7.1982v-51.7168h-7.1982v19.5648ZM126.2271,394.8421c-.9561,1.9346-2.2715,3.46-3.9492,4.5781-1.6768,1.1182-3.6113,1.6768-5.8008,1.6768s-4.123-.5586-5.8008-1.6768c-1.6768-1.1182-2.9941-2.6436-3.9482-4.5781-.9551-1.9326-1.4326-4.1338-1.4326-6.6045,0-2.4688.4775-4.6699,1.4326-6.6035.9541-1.9336,2.2715-3.46,3.9482-4.5781,1.6777-1.1182,3.6104-1.6768,5.8008-1.6768s4.124.5586,5.8008,1.6768c1.6777,1.1182,2.9932,2.6445,3.9492,4.5781.9541,1.9336,1.4326,4.1348,1.4326,6.6035,0,2.4707-.4785,4.6719-1.4326,6.6045Z"/>
      <path class="cls-10" d="M149.1831,352.7356c-1.4912,0-2.667.4189-3.5293,1.2578s-1.292,1.9336-1.292,3.2842c0,1.4453.4189,2.5635,1.2578,3.3545.8379.793,2.0264,1.1885,3.5635,1.1885,1.4912,0,2.667-.4189,3.5303-1.2578.8613-.8389,1.292-1.9326,1.292-3.2852,0-1.4434-.4189-2.5615-1.2578-3.3545-.8379-.791-2.0264-1.1875-3.5645-1.1875Z"/>
      <rect class="cls-10" x="145.689" y="369.928" width="7.1982" height="36.6904"/>
      <path class="cls-10" d="M189.9634,371.6399c-2.8203-1.6533-6-2.4814-9.54-2.4814-3.5879,0-6.791.8281-9.6094,2.4814-2.8193,1.6543-5.0439,3.9131-6.6748,6.7793-1.6309,2.8652-2.4453,6.1387-2.4453,9.8184,0,3.6816.8145,6.9541,2.4453,9.8193s3.8555,5.126,6.6748,6.7793c2.8184,1.6543,6.0215,2.4814,9.6094,2.4814,3.54,0,6.7197-.8271,9.54-2.4814,2.8184-1.6533,5.042-3.9141,6.6738-6.7793,1.6299-2.8652,2.4463-6.1377,2.4463-9.8193,0-3.6797-.8164-6.9531-2.4463-9.8184-1.6318-2.8662-3.8555-5.125-6.6738-6.7793ZM190.3472,394.6331c-.9785,1.8867-2.3301,3.3779-4.0537,4.4727s-3.6807,1.6426-5.8701,1.6426-4.1582-.5479-5.9053-1.6426-3.1104-2.5859-4.0889-4.4727c-.9785-1.8877-1.4443-4.0186-1.3975-6.3955-.0469-2.376.4189-4.5068,1.3975-6.3945.9785-1.8867,2.3418-3.377,4.0889-4.4727,1.7471-1.0938,3.7148-1.6426,5.9053-1.6426s4.1465.5361,5.8701,1.6074c1.7236,1.0723,3.0752,2.5518,4.0537,4.4385s1.4434,4.042,1.3975,6.4639c.0459,2.377-.4189,4.5078-1.3975,6.3955Z"/>
      <polygon class="cls-10" points="220.7882 396.1204 210.1245 369.928 202.3667 369.928 217.8823 406.6184 223.0542 406.6184 239.3374 369.928 231.9292 369.928 220.7882 396.1204"/>
      <rect class="cls-10" x="247.0952" y="369.928" width="7.1982" height="36.6904"/>
      <path class="cls-10" d="M250.5894,352.7356c-1.4912,0-2.667.4189-3.5293,1.2578s-1.292,1.9336-1.292,3.2842c0,1.4453.4189,2.5635,1.2578,3.3545.8379.793,2.0264,1.1885,3.5635,1.1885,1.4912,0,2.667-.4189,3.5303-1.2578.8613-.8389,1.292-1.9326,1.292-3.2852,0-1.4434-.4189-2.5615-1.2578-3.3545-.8379-.791-2.0264-1.1875-3.5645-1.1875Z"/>
      <path class="cls-10" d="M288.3286,389.426c-.8848-.9316-2.085-1.7578-3.5986-2.4805-1.5146-.7227-3.4365-1.3857-5.7656-1.9922-1.585-.3721-2.8896-.7686-3.9141-1.1885-1.0254-.4189-1.7939-.8145-2.3057-1.1875-.4668-.373-.8281-.8271-1.084-1.3633-.2568-.5352-.4082-1.1055-.4541-1.7119,0-.6992.1396-1.3281.4189-1.8867.2803-.5596.6875-1.0244,1.2236-1.3984.5352-.3721,1.1992-.6514,1.9912-.8379s1.6777-.2803,2.6562-.2803c.8848,0,1.8633.1875,2.9355.5596,1.0713.373,2.1309.8975,3.1797,1.5723,1.0479.6758,2.0146,1.457,2.9004,2.3408l4.123-4.542c-.9785-1.2109-2.1904-2.2598-3.6338-3.1455-1.4453-.8838-3.0176-1.5605-4.7178-2.0264-1.7012-.4648-3.4131-.6992-5.1367-.6992-1.8174,0-3.5293.2568-5.1367.7695s-3.0049,1.2471-4.1934,2.2012c-1.1875.9551-2.1201,2.0732-2.7949,3.3545-.6768,1.2822-1.0137,2.6904-1.0137,4.2285,0,1.2578.1631,2.4111.4893,3.459.3252,1.0488.8389,2.0156,1.5371,2.9004.9316,1.1182,2.2598,2.1211,3.9834,3.0049,1.7236.8857,3.9375,1.6777,6.6396,2.376,1.584.4199,2.876.8281,3.8789,1.2236,1.001.3965,1.7354.7578,2.2012,1.083.8848.7461,1.3281,1.7246,1.3281,2.9355,0,.6982-.1396,1.3398-.4189,1.9219-.2803.583-.6885,1.083-1.2236,1.502-.5361.4199-1.165.7344-1.8867.9443-.7227.209-1.5029.3145-2.3408.3145-2.0967,0-3.9727-.3604-5.626-1.084-1.6543-.7217-3.1807-1.8975-4.5781-3.5293l-4.8916,4.1934c1.6299,2.0967,3.6797,3.6816,6.1494,4.7529s5.2422,1.6074,8.3164,1.6074c2.4697,0,4.7061-.4668,6.71-1.3984,2.002-.9307,3.5986-2.2236,4.7871-3.8779,1.1875-1.6533,1.7822-3.5303,1.7822-5.626,0-1.4443-.1865-2.749-.5596-3.9141-.373-1.1641-1.0254-2.1895-1.957-3.0752Z"/>
      <path class="cls-10" d="M323.8306,392.012c0,1.3047-.2334,2.5156-.6992,3.6338s-1.1074,2.0742-1.9219,2.8652c-.8154.793-1.7822,1.4102-2.9004,1.8525-1.1182.4434-2.3535.6641-3.7041.6641-1.8164,0-3.3662-.4199-4.6475-1.2578-1.2822-.8389-2.2598-2.0381-2.9346-3.5996-.6768-1.5605-1.0137-3.4121-1.0137-5.5557v-20.6865h-7.1982v22.6426c0,3.0293.5234,5.6387,1.5723,7.8281,1.0479,2.1904,2.5391,3.8906,4.4727,5.1016,1.9326,1.2109,4.2041,1.8174,6.8145,1.8174,2.0967,0,4.0527-.4092,5.8701-1.2236s3.3896-1.9219,4.7178-3.3193c.608-.6402,1.1254-1.3188,1.5723-2.0276v5.8713h7.1982v-36.6904h-7.1982v22.084Z"/>
      <path class="cls-10" d="M367.9995,375.5285c-.7417-1.1914-1.6566-2.2585-2.7607-3.1894-1.1875-1.002-2.5742-1.7822-4.1582-2.3418-1.584-.5586-3.3311-.8389-5.2412-.8389-3.2148,0-6.1152.8164-8.7012,2.4463-2.5859,1.6318-4.6367,3.8789-6.1504,6.7441-1.5146,2.8652-2.2715,6.1396-2.2715,9.8193,0,3.6338.7451,6.8955,2.2373,9.7842,1.4902,2.8896,3.4814,5.1719,5.9746,6.8486,2.4922,1.6777,5.2529,2.5166,8.2822,2.5166,1.7695,0,3.459-.2803,5.0664-.8389,1.6074-.5596,3.0752-1.3037,4.4033-2.2363,1.3271-.9316,2.4219-1.9922,3.2842-3.1797.0128-.0176.0225-.0357.0352-.0533v5.609h7.2686v-36.6904h-7.2686v5.6005ZM366.8462,394.6331c-.9551,1.8867-2.2715,3.3662-3.9482,4.4375-1.6777,1.0723-3.6113,1.6074-5.8008,1.6074-2.1436,0-4.043-.5352-5.6963-1.6074-1.6543-1.0713-2.959-2.5508-3.9131-4.4375-.9561-1.8877-1.4326-4.042-1.4326-6.4648,0-2.376.4766-4.4961,1.4326-6.3594.9541-1.8633,2.2588-3.3311,3.9131-4.4033,1.6533-1.0713,3.5527-1.6074,5.6963-1.6074,2.1895,0,4.123.5361,5.8008,1.6074,1.6768,1.0723,2.9932,2.54,3.9482,4.4033.9551,1.8633,1.4326,3.9834,1.4326,6.3594,0,2.4229-.4775,4.5771-1.4326,6.4648Z"/>
      <rect class="cls-10" x="385.4712" y="354.9016" width="7.1982" height="51.7168"/>
      <path class="cls-10" d="M433.1685,369.718c1.4678-1.5381,3.1904-2.7363,5.1719-3.5996,1.9795-.8613,4.1113-1.293,6.3945-1.293,1.4434,0,2.876.2344,4.2979.6992,1.4209.4658,2.8184,1.1533,4.1934,2.0615,1.374.9082,2.7363,2.0391,4.0879,3.3896l5.0322-5.2412c-1.165-1.6309-2.668-3.0859-4.5078-4.3682-1.8408-1.2812-3.8906-2.2822-6.1504-3.0049s-4.5771-1.084-6.9531-1.084c-3.3545,0-6.4766.6289-9.3652,1.8877-2.8896,1.2578-5.4277,3.0283-7.6172,5.3105-2.1914,2.2842-3.9033,4.9277-5.1367,7.9326-1.2354,3.0049-1.8525,6.2549-1.8525,9.749,0,3.6816.5703,7.0586,1.7119,10.1338s2.7607,5.7432,4.8574,8.002c2.0967,2.2607,4.5654,3.9961,7.4082,5.207,2.8418,1.2109,5.9639,1.8174,9.3652,1.8174,2.2822,0,4.5537-.292,6.8135-.874s4.3096-1.3857,6.1504-2.4111c1.8398-1.0244,3.2959-2.166,4.3682-3.4248l-3.7744-6.1494c-1.0723,1.0723-2.2598,2.0039-3.5645,2.7949-1.3047.793-2.7021,1.3984-4.1924,1.8174-1.4922.4189-3.0059.6289-4.543.6289-2.5156,0-4.8115-.4072-6.8838-1.2227-2.0742-.8145-3.8564-1.9922-5.3467-3.5293-1.4912-1.5381-2.6445-3.3896-3.459-5.5566-.8164-2.166-1.2236-4.5771-1.2236-7.2334,0-2.5156.4199-4.833,1.2578-6.9531.8389-2.1201,1.9922-3.9492,3.46-5.4863Z"/>
      <rect class="cls-10" x="470.0327" y="354.9016" width="7.1982" height="51.7168"/>
      <path class="cls-10" d="M512.105,392.012c0,1.3047-.2334,2.5156-.6992,3.6338s-1.1074,2.0742-1.9219,2.8652c-.8154.793-1.7822,1.4102-2.9004,1.8525-1.1182.4434-2.3535.6641-3.7041.6641-1.8164,0-3.3662-.4199-4.6475-1.2578-1.2822-.8389-2.2598-2.0381-2.9346-3.5996-.6768-1.5605-1.0137-3.4121-1.0137-5.5557v-20.6865h-7.1982v22.6426c0,3.0293.5234,5.6387,1.5723,7.8281,1.0479,2.1904,2.5391,3.8906,4.4727,5.1016,1.9326,1.2109,4.2041,1.8174,6.8145,1.8174,2.0967,0,4.0527-.4092,5.8701-1.2236s3.3896-1.9219,4.7178-3.3193c.608-.6402,1.1254-1.3188,1.5723-2.0276v5.8713h7.1982v-36.6904h-7.1982v22.084Z"/>
      <path class="cls-10" d="M552.3599,389.426c-.8848-.9316-2.085-1.7578-3.5986-2.4805-1.5146-.7227-3.4365-1.3857-5.7656-1.9922-1.585-.3721-2.8896-.7686-3.9141-1.1885-1.0254-.4189-1.7939-.8145-2.3057-1.1875-.4668-.373-.8281-.8271-1.084-1.3633-.2568-.5352-.4082-1.1055-.4541-1.7119,0-.6992.1396-1.3281.4189-1.8867.2803-.5596.6875-1.0244,1.2236-1.3984.5352-.3721,1.1992-.6514,1.9912-.8379s1.6777-.2803,2.6562-.2803c.8848,0,1.8633.1875,2.9355.5596,1.0713.373,2.1309.8975,3.1797,1.5723,1.0479.6758,2.0146,1.457,2.9004,2.3408l4.123-4.542c-.9785-1.2109-2.1904-2.2598-3.6338-3.1455-1.4453-.8838-3.0176-1.5605-4.7178-2.0264-1.7012-.4648-3.4131-.6992-5.1367-.6992-1.8174,0-3.5293.2568-5.1367.7695s-3.0049,1.2471-4.1934,2.2012c-1.1875.9551-2.1201,2.0732-2.7949,3.3545-.6768,1.2822-1.0137,2.6904-1.0137,4.2285,0,1.2578.1631,2.4111.4893,3.459.3252,1.0488.8389,2.0156,1.5371,2.9004.9316,1.1182,2.2598,2.1211,3.9834,3.0049,1.7236.8857,3.9375,1.6777,6.6396,2.376,1.584.4199,2.876.8281,3.8789,1.2236,1.001.3965,1.7354.7578,2.2012,1.083.8848.7461,1.3281,1.7246,1.3281,2.9355,0,.6982-.1396,1.3398-.4189,1.9219-.2803.583-.6885,1.083-1.2236,1.502-.5361.4199-1.165.7344-1.8867.9443-.7227.209-1.5029.3145-2.3408.3145-2.0967,0-3.9727-.3604-5.626-1.084-1.6543-.7217-3.1807-1.8975-4.5781-3.5293l-4.8916,4.1934c1.6299,2.0967,3.6797,3.6816,6.1494,4.7529s5.2422,1.6074,8.3164,1.6074c2.4697,0,4.7061-.4668,6.71-1.3984,2.002-.9307,3.5986-2.2236,4.7871-3.8779,1.1875-1.6533,1.7822-3.5303,1.7822-5.626,0-1.4443-.1865-2.749-.5596-3.9141-.373-1.1641-1.0254-2.1895-1.957-3.0752Z"/>
      <polygon class="cls-10" points="574.5835 360.5628 567.3843 360.5628 567.3843 369.928 559.7671 369.928 559.7671 376.9163 567.3843 376.9163 567.3843 406.6184 574.5835 406.6184 574.5835 376.9163 583.1089 376.9163 583.1089 369.928 574.5835 369.928 574.5835 360.5628"/>
      <path class="cls-10" d="M617.8081,374.1907c-1.5146-1.583-3.2969-2.8301-5.3457-3.7393-2.0508-.9082-4.2637-1.3623-6.6396-1.3623-2.7031,0-5.207.4785-7.5127,1.4326-2.3066.9551-4.2871,2.3057-5.9404,4.0537-1.6543,1.7471-2.9473,3.8086-3.8789,6.1846-.9326,2.376-1.3975,5.0088-1.3975,7.8975,0,3.6338.8262,6.8486,2.4805,9.6445,1.6533,2.7949,3.9365,4.9971,6.8486,6.6045s6.2559,2.4111,10.0293,2.4111c1.7236,0,3.4824-.2451,5.2764-.7344,1.793-.4893,3.4941-1.1533,5.1016-1.9912,1.6074-.8389,2.9707-1.8174,4.0889-2.9355l-3.6338-5.1016c-1.8174,1.584-3.5068,2.6797-5.0674,3.2842-1.5615.6064-3.25.9092-5.0664.9092-2.5635,0-4.8223-.5127-6.7793-1.5381-1.957-1.0244-3.4717-2.4805-4.543-4.3682-.8101-1.4255-1.3115-3.0452-1.5092-4.8564h28.0668l.0693-3.0752c.0459-2.5625-.3379-4.9277-1.1523-7.0938-.8164-2.167-1.9814-4.042-3.4951-5.626ZM599.4634,377.1604c1.7227-.9541,3.8438-1.4326,6.3594-1.4326,1.583,0,3.0508.3496,4.4023,1.0488s2.4697,1.6543,3.3555,2.8652c.8838,1.2119,1.3975,2.5859,1.5371,4.123v.4893h-20.5174c.2206-1.0596.5314-2.0319.949-2.9004.8848-1.8398,2.1895-3.2373,3.9141-4.1934Z"/>
      <path class="cls-10" d="M651.0054,369.3684c-.7236-.1396-1.4805-.21-2.2715-.21-1.7246,0-3.3896.4199-4.9971,1.2578-1.6074.8389-3.0293,1.9814-4.2637,3.4248-.7963.9323-1.4261,1.9395-1.9219,3.0068v-6.9199h-7.2676v36.6904h7.2676v-20.2676c0-1.3506.2559-2.5967.7695-3.7383.5117-1.1416,1.1982-2.1426,2.0615-3.0059.8613-.8613,1.8623-1.5371,3.0049-2.0264,1.1416-.4893,2.3408-.7344,3.5996-.7344.6514,0,1.3154.082,1.9912.2451.6748.1641,1.293.3613,1.8525.5938l1.8867-7.8271c-.4189-.1855-.9902-.3496-1.7119-.4893Z"/>
    </g>
    <path class="cls-6" d="M636.3636,286.9578c-4.1039,10.1183-9.9624,19.0739-17.4109,26.6151-7.4098,7.4985-16.2609,13.359-26.3045,17.4293h0c1.7143,2.871,4.812,4.6292,8.1558,4.6292h40.1124v-61.359c-1.3228,4.3963-2.9063,8.6221-4.5528,12.6854Z"/>
    <path class="cls-3" d="M291.6059,42.8738h0c4.0195-2.4001,6.4809-6.7368,6.4809-11.4183V0h-61.4794c4.4049,1.2863,8.639,2.826,12.7102,4.427,10.1382,3.9905,19.1114,9.6872,26.6673,16.9301,6.4524,6.1879,11.685,13.4155,15.6208,21.5167Z"/>
    <path class="cls-4" d="M634.8507,220.3066c-4.0422-10.0465-9.7351-18.7832-17.0704-26.2089-7.3388-7.4269-15.9866-13.1433-25.9434-17.1468-9.9613-4.0059-20.9291-6.006-32.907-6.006-11.8311,0-22.7644,2.0001-32.795,6.006-10.034,4.0035-18.7199,9.7199-26.0554,17.1468-7.3388,7.4257-13.0281,16.1624-17.0715,26.2089-4.0434,10.0476-6.0645,21.1122-6.0645,33.2004,0,11.9378,2.0211,22.8957,6.0645,32.8715,4.0434,9.9714,9.7327,18.6744,17.0715,26.1001,7.3355,7.4268,16.0214,13.14,26.0554,17.1457,10.0306,4.0035,21.0378,6.0071,33.019,6.0071h4.7905c10.062-.863,19.2728-4.2529,27.2702-7.4672,9.7059-3.9055,18.2496-9.5511,25.3935-16.7809,7.1552-7.2428,12.7841-15.851,16.7324-25.5851,3.6739-9.0657,7.0575-18.9131,7.5761-29.715v-2.795c0-11.9411-2.0223-22.9339-6.0657-32.9815ZM558.6935,287.5795c-18.9386,0-34.2914-15.3527-34.2914-34.2914s15.3528-34.2913,34.2914-34.2913,34.2914,15.3527,34.2914,34.2913-15.3528,34.2914-34.2914,34.2914Z"/>
    <path class="cls-2" d="M324.1135,221.2909c-4.0137-9.6819-9.738-18.092-17.1794-25.228-7.4404-7.1318-16.1604-12.6673-26.1514-16.6003-9.9954-3.9306-21.0468-5.897-33.1554-5.897-11.9645,0-22.9788,1.9664-33.0462,5.897-10.0663,3.9329-18.8201,9.4685-26.2605,16.6003-7.4415,7.1361-13.169,15.5461-17.1805,25.228-4.0135,9.6839-6.0176,20.3501-6.0176,31.9982,0,11.5045,2.0041,22.1336,6.0176,31.8873,4.0115,9.758,9.739,18.205,17.1805,25.3369,7.4404,7.1362,16.1942,12.6695,26.2605,16.6001,10.0674,3.9307,21.1538,5.8971,33.2655,5.8971,11.9612,0,22.9407-1.9664,32.9361-5.8971,9.991-3.9306,18.711-9.4639,26.1514-16.6001,7.4415-7.1318,13.1657-15.5789,17.1794-25.3369,4.0113-9.7537,6.0187-20.4546,6.0187-32.1072,0-11.5001-2.0074-22.0944-6.0187-31.7783ZM247.6273,287.5795c-18.9386,0-34.2913-15.3527-34.2913-34.2914s15.3527-34.2913,34.2913-34.2913,34.2914,15.3527,34.2914,34.2913-15.3527,34.2914-34.2914,34.2914Z"/>
    <path class="cls-1" d="M290.605,48.3294c-3.9132-9.4379-9.5699-17.7456-16.8138-24.6923-7.2571-6.9576-15.8822-12.431-25.6354-16.2703-9.0835-3.5724-18.9502-6.8624-29.7733-7.3668h-2.8005c-11.9645,0-22.979,1.9664-33.0463,5.8981-10.0663,3.9307-18.8201,9.4663-26.2605,16.5992-7.4415,7.1361-13.1689,15.545-17.1804,25.2269-4.0137,9.6861-6.0178,20.3512-6.0178,31.9982,0,11.5045,2.0041,22.1358,6.0178,31.8895,4.0115,9.7569,9.7389,18.2029,17.1804,25.3358,7.4404,7.1362,16.1942,12.6684,26.2605,16.6001,10.0674,3.9318,21.1538,5.8971,33.2655,5.8971,11.9614,0,22.9407-1.9653,32.9361-5.8971,9.991-3.9317,18.7111-9.4639,26.1514-16.6001,7.4415-7.1329,13.1657-15.5789,17.1794-25.3358,4.0115-9.7537,6.0189-20.4568,6.0189-32.1072v-4.6584c-.8648-9.7841-4.2612-18.7405-7.4819-26.517ZM215.582,114.0138c-18.9387,0-34.2914-15.3527-34.2914-34.2914s15.3527-34.2913,34.2914-34.2913,34.2913,15.3527,34.2913,34.2913-15.3527,34.2914-34.2913,34.2914Z"/>
    <path class="cls-5" d="M105.1209,105.4531c-6.0396,5.313-13.9398,8.5607-22.616,8.5607-18.9387,0-34.2914-15.3527-34.2914-34.2914s15.3527-34.2913,34.2914-34.2913c8.6711,0,16.5672,3.2438,22.6056,8.5513l30.4838-34.8085c-6.0904-4.8662-12.9594-8.8328-20.5155-11.8072-9.0835-3.5724-18.9502-6.8624-29.7733-7.3668h-2.8005c-11.9645,0-22.979,1.9664-33.0463,5.8981-10.0663,3.9307-18.8201,9.4663-26.2605,16.5992-7.4415,7.1361-13.1689,15.545-17.1804,25.2269C2.0041,57.4103,0,68.0753,0,79.7224c0,11.5045,2.0041,22.1358,6.0178,31.8895,4.0115,9.7569,9.7389,18.2029,17.1804,25.3358,7.4404,7.1362,16.1942,12.6684,26.2605,16.6001,10.0674,3.9318,21.1538,5.8971,33.2655,5.8971,11.9614,0,22.9407-1.9653,32.9361-5.8971,7.7703-3.0578,14.7615-7.0964,20.9902-12.0921l-31.5295-36.0026Z"/>
  </g>
</svg>