<?xml version="1.0" encoding="UTF-8"?>
<svg id="Layer_2" data-name="Layer 2" xmlns="http://www.w3.org/2000/svg" viewBox="0 0 165.0099 159.4449">
  <defs>
    <style>
      .cls-1 {
        fill: #fff;
      }
    </style>
  </defs>
  <g id="Layer_1-2" data-name="Layer 1">
    <path class="cls-1" d="M158.5289,42.8738h0c4.0195-2.4001,6.4809-6.7368,6.4809-11.4183V0h-61.4794c4.4049,1.2863,8.639,2.826,12.7102,4.427,10.1382,3.9905,19.1114,9.6872,26.6673,16.9301,6.4524,6.1879,11.685,13.4155,15.6208,21.5167Z"/>
    <path class="cls-1" d="M157.528,48.3294c-3.9132-9.4379-9.5699-17.7456-16.8138-24.6923-7.2571-6.9576-15.8822-12.431-25.6354-16.2703-9.0835-3.5724-18.9502-6.8624-29.7733-7.3668h-2.8005c-11.9645,0-22.979,1.9664-33.0463,5.8981-10.0663,3.9307-18.8201,9.4663-26.2605,16.5992-7.4415,7.1361-13.1689,15.545-17.1804,25.2269C2.0041,57.4103,0,68.0753,0,79.7224c0,11.5045,2.0041,22.1358,6.0178,31.8895,4.0115,9.7569,9.7389,18.2029,17.1804,25.3358,7.4404,7.1362,16.1942,12.6684,26.2605,16.6001,10.0674,3.9318,21.1538,5.8971,33.2655,5.8971,11.9614,0,22.9407-1.9653,32.9361-5.8971,9.991-3.9317,18.7111-9.4639,26.1514-16.6001,7.4415-7.1329,13.1657-15.5789,17.1794-25.3358,4.0115-9.7537,6.0189-20.4568,6.0189-32.1072v-4.6584c-.8648-9.7841-4.2612-18.7405-7.4819-26.517ZM82.5049,114.0138c-18.9387,0-34.2914-15.3527-34.2914-34.2914s15.3527-34.2913,34.2914-34.2913,34.2913,15.3527,34.2913,34.2913-15.3527,34.2914-34.2913,34.2914Z"/>
  </g>
</svg>